<svg width="766" height="766" viewBox="0 0 766 766" fill="none" xmlns="http://www.w3.org/2000/svg">
<path d="M592.225 340.988V257.325H508.535V173.775H424.845V173.719H341.154V173.775H257.464V257.409V257.465V341.099H173.774V424.789H257.464V508.395V528.481V592.086H341.154V592.169H424.845V592.086H508.535V508.479H592.225V424.789H508.535V508.395H424.845V508.479H341.154V508.395V424.789H424.845H508.535V341.099H424.845H341.154V257.465V257.409H424.845V257.465H508.535V340.988H592.225Z" fill="#0000EB"/>
<path d="M173.775 90.0848H257.465H341.155H424.845H508.535H592.225V173.719H675.915V90.029H592.225V6.39478H508.535H424.845H341.155H257.465H173.775V90.029H90.085V173.719H173.775V90.0848Z" fill="#0000EB"/>
<path d="M675.915 173.775V257.465V341.155V424.845V508.535V592.225H759.605V508.535V424.845V341.155V257.465V173.775H675.915Z" fill="#0000EB"/>
<path d="M90.0846 424.845V341.155V257.465V173.775H6.39453V257.465V341.155V424.845V508.535V592.225H90.0846V508.535V424.845Z" fill="#0000EB"/>
<path d="M173.775 592.225H90.085V675.915H173.775V592.225Z" fill="#0000EB"/>
<path d="M424.845 675.915H341.154H257.464H173.774V759.605H257.464H341.154H424.845H508.535H592.225V675.915H508.535H424.845Z" fill="#0000EB"/>
<path d="M675.915 592.225H592.225V675.915H675.915V592.225Z" fill="#0000EB"/>
</svg>
