<svg width="766" height="766" viewBox="0 0 766 766" fill="none" xmlns="http://www.w3.org/2000/svg">
<path d="M512.43 593.508V512.374H593.62H596.12V509.874V423.394V420.894H593.62H512.43V344.91H593.62H596.12V342.41V255.931V253.431H593.62H512.43V172.38V169.88H509.93H256.07H253.57V172.38V337.204H172.38H169.88V339.704V426.184V428.684H172.38H253.57V593.508V596.008L256.069 596.008L424.844 596.064H424.846L509.931 596.008L512.43 596.007V593.508ZM504.64 504.53L345.05 504.584V428.684H504.64V504.53ZM504.64 261.359V337.204H345.05V261.305L504.64 261.359Z" fill="#9B9B9B" stroke="#9B9B9B" stroke-width="5"/>
<path d="M763.5 172.38V169.88H761H679.81V88.6342V86.1342H677.31H596.12V5V2.5H593.62H172.38H169.88V5V86.1342H88.69H86.19V88.6342V169.88H5H2.5V172.38V593.62V596.12H5H86.19V677.31V679.81H88.69H169.88V761V763.5H172.38H593.62H596.12V761V679.81H677.31H679.81V677.31V596.12H761H763.5V593.62V172.38ZM177.67 175.114V93.9797H588.33V175.114V177.614H590.83H672.02V588.33H590.83H588.33V590.83V672.02H177.67V590.83V588.33H175.17H93.9797V177.614H175.17H177.67V175.114Z" fill="#9B9B9B" stroke="#9B9B9B" stroke-width="5"/>
<path d="M592.225 340.988V257.325H508.535V173.775H424.845V173.719H341.154V173.775H257.464V257.409V257.465V341.099H173.774V424.789H257.464V508.395V528.481V592.086H341.154V592.169H424.845V592.086H508.535V508.479H592.225V424.789H508.535V508.395H424.845V508.479H341.154V508.395V424.789H424.845H508.535V341.099H424.845H341.154V257.465V257.409H424.845V257.465H508.535V340.988H592.225Z" fill="#0000EB"/>
<path d="M173.775 90.0848H257.465H341.155H424.845H508.535H592.225V173.719H675.915V90.029H592.225V6.39478H508.535H424.845H341.155H257.465H173.775V90.029H90.085V173.719H173.775V90.0848Z" fill="#0000EB"/>
<path d="M675.915 173.775V257.465V341.155V424.845V508.535V592.225H759.605V508.535V424.845V341.155V257.465V173.775H675.915Z" fill="#0000EB"/>
<path d="M90.0846 424.845V341.155V257.465V173.775H6.39453V257.465V341.155V424.845V508.535V592.225H90.0846V508.535V424.845Z" fill="#0000EB"/>
<path d="M173.775 592.225H90.085V675.915H173.775V592.225Z" fill="#0000EB"/>
<path d="M424.845 675.915H341.154H257.464H173.774V759.605H257.464H341.154H424.845H508.535H592.225V675.915H508.535H424.845Z" fill="#0000EB"/>
<path d="M675.915 592.225H592.225V675.915H675.915V592.225Z" fill="#0000EB"/>
</svg>
