<svg width="756" height="756" viewBox="0 0 756 756" fill="none" xmlns="http://www.w3.org/2000/svg">
<path d="M251.07 421.184V588.508L419.845 588.564L504.93 588.508V504.874H588.62V418.394H504.93V337.41H588.62V250.93H504.93V167.38H251.07V334.704H167.38V421.184H251.07ZM337.55 502.084V421.184H502.14V502.028L337.55 502.084ZM337.55 253.804L502.14 253.86V334.704H337.55V253.804Z" fill="#9B9B9B"/>
<path d="M756 167.38H672.31V83.6342H588.62V0H167.38V83.6342H83.69V167.38H0V588.62H83.69V672.31H167.38V756H588.62V672.31H672.31V588.62H756V167.38ZM170.17 170.114V86.4797H585.83V170.114H669.52V585.83H585.83V669.52H170.17V585.83H86.4797V170.114H170.17Z" fill="#9B9B9B"/>
<path d="M587.225 335.987V252.325H503.535V168.775H419.845V168.719H336.155V168.775H252.465V252.409V252.465V336.099H168.775V419.789H252.465V503.395V523.481V587.085H336.155V587.169H419.845V587.085H503.535V503.479H587.225V419.789H503.535V503.395H419.845V503.479H336.155V503.395V419.789H419.845H503.535V336.099H419.845H336.155V252.465V252.409H419.845V252.465H503.535V335.987H587.225Z" fill="#9B9B9B"/>
<path d="M168.775 85.0846H252.465H336.155H419.845H503.535H587.225V168.719H670.915V85.0288H587.225V1.39453H503.535H419.845H336.155H252.465H168.775V85.0288H85.085V168.719H168.775V85.0846Z" fill="#9B9B9B"/>
<path d="M670.916 168.774V252.464V336.154V419.845V503.535V587.225H754.606V503.535V419.845V336.154V252.464V168.774H670.916Z" fill="#9B9B9B"/>
<path d="M85.0851 419.845V336.154V252.464V168.774H1.39502V252.464V336.154V419.845V503.535V587.225H85.0851V503.535V419.845Z" fill="#9B9B9B"/>
<path d="M168.775 587.225H85.085V670.915H168.775V587.225Z" fill="#9B9B9B"/>
<path d="M419.845 670.915H336.155H252.465H168.775V754.605H252.465H336.155H419.845H503.535H587.225V670.915H503.535H419.845Z" fill="#9B9B9B"/>
<path d="M670.915 587.225H587.225V670.915H670.915V587.225Z" fill="#9B9B9B"/>
</svg>
